<?xml version="1.0" standalone="no"?>
<!DOCTYPE svg PUBLIC "-//W3C//DTD SVG 20010904//EN"
 "http://www.w3.org/TR/2001/REC-SVG-20010904/DTD/svg10.dtd">
<svg version="1.0" xmlns="http://www.w3.org/2000/svg"
 width="184.000000pt" height="59.000000pt" viewBox="0 0 184.000000 59.000000"
 preserveAspectRatio="xMidYMid meet">
<metadata>
Created by potrace 1.10, written by Peter Selinger 2001-2011
</metadata>
<g transform="translate(0.000000,59.000000) scale(0.100000,-0.100000)"
fill="#000000" stroke="none">
<path d="M163 569 c-44 -13 -55 -37 -60 -138 -6 -94 -16 -111 -65 -111 -23 0
-28 -4 -28 -25 0 -21 5 -25 29 -25 47 0 58 -20 63 -113 7 -101 17 -123 66
-137 61 -16 77 -13 77 15 0 21 -5 25 -30 25 -53 0 -58 11 -63 110 -4 90 -5 92
-36 111 -18 11 -24 19 -15 19 33 0 47 33 51 123 5 96 11 107 63 107 25 0 30 4
30 25 0 28 -22 31 -82 14z"/>
<path d="M1600 556 c0 -23 4 -26 35 -26 44 0 55 -20 55 -104 0 -78 11 -112 41
-121 l22 -7 -23 -13 c-32 -17 -38 -37 -39 -118 -1 -87 -11 -107 -56 -107 -31
0 -35 -3 -35 -26 0 -26 1 -26 46 -19 26 3 52 9 60 12 20 8 34 60 34 132 0 80
17 111 61 111 24 0 29 4 29 25 0 21 -5 25 -28 25 -47 0 -62 27 -62 107 0 75
-13 128 -34 136 -8 3 -34 9 -60 12 -45 7 -46 7 -46 -19z"/>
<path d="M370 291 l0 -181 23 0 22 0 -3 162 c-2 98 1 159 6 153 5 -5 28 -63
52 -127 37 -102 46 -118 65 -118 19 0 29 18 71 128 l49 127 3 -162 c2 -155 4
-163 22 -163 19 0 20 7 20 180 l0 180 -34 0 -33 0 -48 -125 c-27 -69 -49 -124
-51 -122 -1 1 -23 56 -47 122 l-45 120 -36 3 -36 3 0 -180z"/>
<path d="M800 291 l0 -181 23 0 22 0 -3 162 c-2 98 1 159 6 153 5 -5 28 -63
52 -127 37 -102 46 -118 65 -118 19 0 29 18 71 128 l49 127 3 -162 c2 -155 4
-163 22 -163 19 0 20 7 20 180 l0 180 -34 0 -33 0 -48 -125 c-27 -69 -49 -124
-51 -122 -1 1 -23 56 -47 122 l-45 120 -36 3 -36 3 0 -180z"/>
<path d="M1230 291 l0 -181 73 0 c129 0 177 27 177 98 0 44 -15 71 -48 83
l-26 10 24 12 c30 15 45 54 36 90 -11 44 -48 60 -147 65 l-89 4 0 -181z m187
113 c15 -24 15 -29 2 -53 -13 -23 -21 -26 -79 -29 l-65 -3 0 56 0 55 62 0 c56
0 64 -3 80 -26z m3 -144 c11 -11 20 -31 20 -45 0 -45 -32 -65 -102 -65 l-63 0
0 65 0 65 63 0 c49 0 66 -4 82 -20z"/>
</g>
</svg>
